<svg width="20" height="20" viewBox="0 0 20 20" fill="none" xmlns="http://www.w3.org/2000/svg">
    <path
        d="M18.2312 8.92339C18.4503 9.2187 18.5716 9.60238 18.5716 10.0002C18.5716 10.398 18.4503 10.7817 18.2312 11.077C16.844 12.8931 13.6863 16.4288 10.0001 16.4288C6.31401 16.4288 3.15636 12.8931 1.7691 11.077C1.55 10.7817 1.42871 10.398 1.42871 10.0002C1.42871 9.60238 1.55 9.2187 1.7691 8.92339C3.15636 7.10729 6.31401 3.57153 10.0001 3.57153C13.6863 3.57153 16.844 7.10729 18.2312 8.92339Z"
        stroke="#303030" stroke-width="1.5" stroke-linecap="round" stroke-linejoin="round" />
    <path
        d="M10.0008 12.8574C11.4601 12.8574 12.6432 11.5782 12.6432 10.0002C12.6432 8.42225 11.4601 7.14307 10.0008 7.14307C8.54144 7.14307 7.3584 8.42225 7.3584 10.0002C7.3584 11.5782 8.54144 12.8574 10.0008 12.8574Z"
        stroke="#303030" stroke-width="1.5" stroke-linecap="round" stroke-linejoin="round" />
</svg>