<svg width="20" height="21" viewBox="0 0 20 21" fill="none" xmlns="http://www.w3.org/2000/svg">
    <path
        d="M5.18696 5.67855C6.60516 4.75698 8.24848 4.07227 10.0024 4.07227C13.9881 4.07227 17.4025 7.60802 18.9025 9.42412C19.1393 9.71944 19.2705 10.1031 19.2705 10.5009C19.2705 10.8987 19.1393 11.2824 18.9025 11.5777C18.0756 12.5788 16.667 14.1024 14.9019 15.2683M12.1453 16.6004C11.4562 16.8088 10.7391 16.9296 10.0024 16.9296C6.01672 16.9296 2.60243 13.3938 1.10243 11.5777C0.865516 11.2824 0.734375 10.8987 0.734375 10.5009C0.734375 10.1031 0.865516 9.71944 1.10243 9.42412C1.57768 8.84872 2.24508 8.10071 3.06193 7.34722"
        stroke="#303030" stroke-width="1.5" stroke-linecap="round" stroke-linejoin="round" />
    <path
        d="M12.0211 12.52C13.1369 11.4042 13.1369 9.59519 12.0211 8.47941C10.9053 7.36364 9.09625 7.36364 7.98047 8.47941"
        stroke="#303030" stroke-width="1.5" stroke-linecap="round" stroke-linejoin="round" />
    <path d="M19.2863 19.7863L0.714844 1.21484" stroke="#303030" stroke-width="1.5"
        stroke-linecap="round" stroke-linejoin="round" />
</svg>